<mxfile host="app.diagrams.net" modified="2020-12-23T02:39:51.266Z" agent="5.0 (Windows NT 10.0; Win64; x64) AppleWebKit/537.36 (KHTML, like Gecko) Chrome/87.0.4280.88 Safari/537.36" etag="FMueVFF_EEBdPmcaWnMY" version="13.8.8" type="github">
  <diagram id="a-QU2m36Lq1g76dQZ_II" name="Page-1">
    <mxGraphModel dx="868" dy="492" grid="1" gridSize="10" guides="1" tooltips="1" connect="1" arrows="1" fold="1" page="1" pageScale="1" pageWidth="1100" pageHeight="850" math="0" shadow="0">
      <root>
        <mxCell id="1cUY1PzR4CZPrAyjgDi5-0" />
        <mxCell id="1cUY1PzR4CZPrAyjgDi5-1" parent="1cUY1PzR4CZPrAyjgDi5-0" />
        <mxCell id="Qd1DkLmeTYPWGf3G97mm-0" value="buku" style="shape=table;startSize=20;container=1;collapsible=1;childLayout=tableLayout;fixedRows=1;rowLines=0;fontStyle=1;align=center;resizeLast=1;" vertex="1" parent="1cUY1PzR4CZPrAyjgDi5-1">
          <mxGeometry x="50" y="40" width="180" height="200" as="geometry" />
        </mxCell>
        <mxCell id="Qd1DkLmeTYPWGf3G97mm-1" value="" style="shape=partialRectangle;collapsible=0;dropTarget=0;pointerEvents=0;fillColor=none;top=0;left=0;bottom=1;right=0;points=[[0,0.5],[1,0.5]];portConstraint=eastwest;" vertex="1" parent="Qd1DkLmeTYPWGf3G97mm-0">
          <mxGeometry y="20" width="180" height="30" as="geometry" />
        </mxCell>
        <mxCell id="Qd1DkLmeTYPWGf3G97mm-2" value="PK" style="shape=partialRectangle;connectable=0;fillColor=none;top=0;left=0;bottom=0;right=0;fontStyle=1;overflow=hidden;" vertex="1" parent="Qd1DkLmeTYPWGf3G97mm-1">
          <mxGeometry width="30" height="30" as="geometry" />
        </mxCell>
        <mxCell id="Qd1DkLmeTYPWGf3G97mm-3" value="id_buku" style="shape=partialRectangle;connectable=0;fillColor=none;top=0;left=0;bottom=0;right=0;align=left;spacingLeft=6;fontStyle=5;overflow=hidden;" vertex="1" parent="Qd1DkLmeTYPWGf3G97mm-1">
          <mxGeometry x="30" width="150" height="30" as="geometry" />
        </mxCell>
        <mxCell id="Qd1DkLmeTYPWGf3G97mm-90" value="" style="shape=partialRectangle;collapsible=0;dropTarget=0;pointerEvents=0;fillColor=none;top=0;left=0;bottom=0;right=0;points=[[0,0.5],[1,0.5]];portConstraint=eastwest;" vertex="1" parent="Qd1DkLmeTYPWGf3G97mm-0">
          <mxGeometry y="50" width="180" height="30" as="geometry" />
        </mxCell>
        <mxCell id="Qd1DkLmeTYPWGf3G97mm-91" value="FK" style="shape=partialRectangle;connectable=0;fillColor=none;top=0;left=0;bottom=0;right=0;fontStyle=0;overflow=hidden;" vertex="1" parent="Qd1DkLmeTYPWGf3G97mm-90">
          <mxGeometry width="30" height="30" as="geometry" />
        </mxCell>
        <mxCell id="Qd1DkLmeTYPWGf3G97mm-92" value="id_penulis" style="shape=partialRectangle;connectable=0;fillColor=none;top=0;left=0;bottom=0;right=0;align=left;spacingLeft=6;fontStyle=0;overflow=hidden;" vertex="1" parent="Qd1DkLmeTYPWGf3G97mm-90">
          <mxGeometry x="30" width="150" height="30" as="geometry" />
        </mxCell>
        <mxCell id="Qd1DkLmeTYPWGf3G97mm-4" value="" style="shape=partialRectangle;collapsible=0;dropTarget=0;pointerEvents=0;fillColor=none;top=0;left=0;bottom=0;right=0;points=[[0,0.5],[1,0.5]];portConstraint=eastwest;shadow=0;" vertex="1" parent="Qd1DkLmeTYPWGf3G97mm-0">
          <mxGeometry y="80" width="180" height="30" as="geometry" />
        </mxCell>
        <mxCell id="Qd1DkLmeTYPWGf3G97mm-5" value="" style="shape=partialRectangle;connectable=0;fillColor=none;top=0;left=0;bottom=0;right=0;editable=1;overflow=hidden;" vertex="1" parent="Qd1DkLmeTYPWGf3G97mm-4">
          <mxGeometry width="30" height="30" as="geometry" />
        </mxCell>
        <mxCell id="Qd1DkLmeTYPWGf3G97mm-6" value="judul" style="shape=partialRectangle;connectable=0;fillColor=none;top=0;left=0;bottom=0;right=0;align=left;spacingLeft=6;overflow=hidden;" vertex="1" parent="Qd1DkLmeTYPWGf3G97mm-4">
          <mxGeometry x="30" width="150" height="30" as="geometry" />
        </mxCell>
        <mxCell id="Qd1DkLmeTYPWGf3G97mm-7" value="" style="shape=partialRectangle;collapsible=0;dropTarget=0;pointerEvents=0;fillColor=none;top=0;left=0;bottom=0;right=0;points=[[0,0.5],[1,0.5]];portConstraint=eastwest;" vertex="1" parent="Qd1DkLmeTYPWGf3G97mm-0">
          <mxGeometry y="110" width="180" height="30" as="geometry" />
        </mxCell>
        <mxCell id="Qd1DkLmeTYPWGf3G97mm-8" value="" style="shape=partialRectangle;connectable=0;fillColor=none;top=0;left=0;bottom=0;right=0;editable=1;overflow=hidden;" vertex="1" parent="Qd1DkLmeTYPWGf3G97mm-7">
          <mxGeometry width="30" height="30" as="geometry" />
        </mxCell>
        <mxCell id="Qd1DkLmeTYPWGf3G97mm-9" value="penerbit" style="shape=partialRectangle;connectable=0;fillColor=none;top=0;left=0;bottom=0;right=0;align=left;spacingLeft=6;overflow=hidden;" vertex="1" parent="Qd1DkLmeTYPWGf3G97mm-7">
          <mxGeometry x="30" width="150" height="30" as="geometry" />
        </mxCell>
        <mxCell id="Qd1DkLmeTYPWGf3G97mm-10" value="" style="shape=partialRectangle;collapsible=0;dropTarget=0;pointerEvents=0;fillColor=none;top=0;left=0;bottom=0;right=0;points=[[0,0.5],[1,0.5]];portConstraint=eastwest;" vertex="1" parent="Qd1DkLmeTYPWGf3G97mm-0">
          <mxGeometry y="140" width="180" height="30" as="geometry" />
        </mxCell>
        <mxCell id="Qd1DkLmeTYPWGf3G97mm-11" value="" style="shape=partialRectangle;connectable=0;fillColor=none;top=0;left=0;bottom=0;right=0;editable=1;overflow=hidden;" vertex="1" parent="Qd1DkLmeTYPWGf3G97mm-10">
          <mxGeometry width="30" height="30" as="geometry" />
        </mxCell>
        <mxCell id="Qd1DkLmeTYPWGf3G97mm-12" value="jenis_buku" style="shape=partialRectangle;connectable=0;fillColor=none;top=0;left=0;bottom=0;right=0;align=left;spacingLeft=6;overflow=hidden;" vertex="1" parent="Qd1DkLmeTYPWGf3G97mm-10">
          <mxGeometry x="30" width="150" height="30" as="geometry" />
        </mxCell>
        <mxCell id="Qd1DkLmeTYPWGf3G97mm-19" value="" style="shape=partialRectangle;collapsible=0;dropTarget=0;pointerEvents=0;fillColor=none;top=0;left=0;bottom=0;right=0;points=[[0,0.5],[1,0.5]];portConstraint=eastwest;" vertex="1" parent="Qd1DkLmeTYPWGf3G97mm-0">
          <mxGeometry y="170" width="180" height="30" as="geometry" />
        </mxCell>
        <mxCell id="Qd1DkLmeTYPWGf3G97mm-20" value="" style="shape=partialRectangle;connectable=0;fillColor=none;top=0;left=0;bottom=0;right=0;editable=1;overflow=hidden;" vertex="1" parent="Qd1DkLmeTYPWGf3G97mm-19">
          <mxGeometry width="30" height="30" as="geometry" />
        </mxCell>
        <mxCell id="Qd1DkLmeTYPWGf3G97mm-21" value="id_rak" style="shape=partialRectangle;connectable=0;fillColor=none;top=0;left=0;bottom=0;right=0;align=left;spacingLeft=6;overflow=hidden;" vertex="1" parent="Qd1DkLmeTYPWGf3G97mm-19">
          <mxGeometry x="30" width="150" height="30" as="geometry" />
        </mxCell>
        <mxCell id="Qd1DkLmeTYPWGf3G97mm-25" value="penulis" style="shape=table;startSize=30;container=1;collapsible=1;childLayout=tableLayout;fixedRows=1;rowLines=0;fontStyle=1;align=center;resizeLast=1;" vertex="1" parent="1cUY1PzR4CZPrAyjgDi5-1">
          <mxGeometry x="280" y="40" width="180" height="130" as="geometry" />
        </mxCell>
        <mxCell id="Qd1DkLmeTYPWGf3G97mm-26" value="" style="shape=partialRectangle;collapsible=0;dropTarget=0;pointerEvents=0;fillColor=none;top=0;left=0;bottom=1;right=0;points=[[0,0.5],[1,0.5]];portConstraint=eastwest;" vertex="1" parent="Qd1DkLmeTYPWGf3G97mm-25">
          <mxGeometry y="30" width="180" height="30" as="geometry" />
        </mxCell>
        <mxCell id="Qd1DkLmeTYPWGf3G97mm-27" value="PK" style="shape=partialRectangle;connectable=0;fillColor=none;top=0;left=0;bottom=0;right=0;fontStyle=1;overflow=hidden;" vertex="1" parent="Qd1DkLmeTYPWGf3G97mm-26">
          <mxGeometry width="30" height="30" as="geometry" />
        </mxCell>
        <mxCell id="Qd1DkLmeTYPWGf3G97mm-28" value="id_penulis" style="shape=partialRectangle;connectable=0;fillColor=none;top=0;left=0;bottom=0;right=0;align=left;spacingLeft=6;fontStyle=5;overflow=hidden;" vertex="1" parent="Qd1DkLmeTYPWGf3G97mm-26">
          <mxGeometry x="30" width="150" height="30" as="geometry" />
        </mxCell>
        <mxCell id="Qd1DkLmeTYPWGf3G97mm-29" value="" style="shape=partialRectangle;collapsible=0;dropTarget=0;pointerEvents=0;fillColor=none;top=0;left=0;bottom=0;right=0;points=[[0,0.5],[1,0.5]];portConstraint=eastwest;" vertex="1" parent="Qd1DkLmeTYPWGf3G97mm-25">
          <mxGeometry y="60" width="180" height="30" as="geometry" />
        </mxCell>
        <mxCell id="Qd1DkLmeTYPWGf3G97mm-30" value="" style="shape=partialRectangle;connectable=0;fillColor=none;top=0;left=0;bottom=0;right=0;editable=1;overflow=hidden;" vertex="1" parent="Qd1DkLmeTYPWGf3G97mm-29">
          <mxGeometry width="30" height="30" as="geometry" />
        </mxCell>
        <mxCell id="Qd1DkLmeTYPWGf3G97mm-31" value="nama_penulis" style="shape=partialRectangle;connectable=0;fillColor=none;top=0;left=0;bottom=0;right=0;align=left;spacingLeft=6;overflow=hidden;" vertex="1" parent="Qd1DkLmeTYPWGf3G97mm-29">
          <mxGeometry x="30" width="150" height="30" as="geometry" />
        </mxCell>
        <mxCell id="Qd1DkLmeTYPWGf3G97mm-32" value="" style="shape=partialRectangle;collapsible=0;dropTarget=0;pointerEvents=0;fillColor=none;top=0;left=0;bottom=0;right=0;points=[[0,0.5],[1,0.5]];portConstraint=eastwest;" vertex="1" parent="Qd1DkLmeTYPWGf3G97mm-25">
          <mxGeometry y="90" width="180" height="30" as="geometry" />
        </mxCell>
        <mxCell id="Qd1DkLmeTYPWGf3G97mm-33" value="" style="shape=partialRectangle;connectable=0;fillColor=none;top=0;left=0;bottom=0;right=0;editable=1;overflow=hidden;" vertex="1" parent="Qd1DkLmeTYPWGf3G97mm-32">
          <mxGeometry width="30" height="30" as="geometry" />
        </mxCell>
        <mxCell id="Qd1DkLmeTYPWGf3G97mm-34" value="alamat_penulis" style="shape=partialRectangle;connectable=0;fillColor=none;top=0;left=0;bottom=0;right=0;align=left;spacingLeft=6;overflow=hidden;" vertex="1" parent="Qd1DkLmeTYPWGf3G97mm-32">
          <mxGeometry x="30" width="150" height="30" as="geometry" />
        </mxCell>
        <mxCell id="Qd1DkLmeTYPWGf3G97mm-38" value="penerbit" style="shape=table;startSize=30;container=1;collapsible=1;childLayout=tableLayout;fixedRows=1;rowLines=0;fontStyle=1;align=center;resizeLast=1;" vertex="1" parent="1cUY1PzR4CZPrAyjgDi5-1">
          <mxGeometry x="480" y="40" width="180" height="160" as="geometry" />
        </mxCell>
        <mxCell id="Qd1DkLmeTYPWGf3G97mm-39" value="" style="shape=partialRectangle;collapsible=0;dropTarget=0;pointerEvents=0;fillColor=none;top=0;left=0;bottom=1;right=0;points=[[0,0.5],[1,0.5]];portConstraint=eastwest;" vertex="1" parent="Qd1DkLmeTYPWGf3G97mm-38">
          <mxGeometry y="30" width="180" height="30" as="geometry" />
        </mxCell>
        <mxCell id="Qd1DkLmeTYPWGf3G97mm-40" value="PK" style="shape=partialRectangle;connectable=0;fillColor=none;top=0;left=0;bottom=0;right=0;fontStyle=1;overflow=hidden;" vertex="1" parent="Qd1DkLmeTYPWGf3G97mm-39">
          <mxGeometry width="30" height="30" as="geometry" />
        </mxCell>
        <mxCell id="Qd1DkLmeTYPWGf3G97mm-41" value="UniqueID" style="shape=partialRectangle;connectable=0;fillColor=none;top=0;left=0;bottom=0;right=0;align=left;spacingLeft=6;fontStyle=5;overflow=hidden;" vertex="1" parent="Qd1DkLmeTYPWGf3G97mm-39">
          <mxGeometry x="30" width="150" height="30" as="geometry" />
        </mxCell>
        <mxCell id="Qd1DkLmeTYPWGf3G97mm-42" value="" style="shape=partialRectangle;collapsible=0;dropTarget=0;pointerEvents=0;fillColor=none;top=0;left=0;bottom=0;right=0;points=[[0,0.5],[1,0.5]];portConstraint=eastwest;" vertex="1" parent="Qd1DkLmeTYPWGf3G97mm-38">
          <mxGeometry y="60" width="180" height="30" as="geometry" />
        </mxCell>
        <mxCell id="Qd1DkLmeTYPWGf3G97mm-43" value="" style="shape=partialRectangle;connectable=0;fillColor=none;top=0;left=0;bottom=0;right=0;editable=1;overflow=hidden;" vertex="1" parent="Qd1DkLmeTYPWGf3G97mm-42">
          <mxGeometry width="30" height="30" as="geometry" />
        </mxCell>
        <mxCell id="Qd1DkLmeTYPWGf3G97mm-44" value="Row 1" style="shape=partialRectangle;connectable=0;fillColor=none;top=0;left=0;bottom=0;right=0;align=left;spacingLeft=6;overflow=hidden;" vertex="1" parent="Qd1DkLmeTYPWGf3G97mm-42">
          <mxGeometry x="30" width="150" height="30" as="geometry" />
        </mxCell>
        <mxCell id="Qd1DkLmeTYPWGf3G97mm-45" value="" style="shape=partialRectangle;collapsible=0;dropTarget=0;pointerEvents=0;fillColor=none;top=0;left=0;bottom=0;right=0;points=[[0,0.5],[1,0.5]];portConstraint=eastwest;" vertex="1" parent="Qd1DkLmeTYPWGf3G97mm-38">
          <mxGeometry y="90" width="180" height="30" as="geometry" />
        </mxCell>
        <mxCell id="Qd1DkLmeTYPWGf3G97mm-46" value="" style="shape=partialRectangle;connectable=0;fillColor=none;top=0;left=0;bottom=0;right=0;editable=1;overflow=hidden;" vertex="1" parent="Qd1DkLmeTYPWGf3G97mm-45">
          <mxGeometry width="30" height="30" as="geometry" />
        </mxCell>
        <mxCell id="Qd1DkLmeTYPWGf3G97mm-47" value="Row 2" style="shape=partialRectangle;connectable=0;fillColor=none;top=0;left=0;bottom=0;right=0;align=left;spacingLeft=6;overflow=hidden;" vertex="1" parent="Qd1DkLmeTYPWGf3G97mm-45">
          <mxGeometry x="30" width="150" height="30" as="geometry" />
        </mxCell>
        <mxCell id="Qd1DkLmeTYPWGf3G97mm-48" value="" style="shape=partialRectangle;collapsible=0;dropTarget=0;pointerEvents=0;fillColor=none;top=0;left=0;bottom=0;right=0;points=[[0,0.5],[1,0.5]];portConstraint=eastwest;" vertex="1" parent="Qd1DkLmeTYPWGf3G97mm-38">
          <mxGeometry y="120" width="180" height="30" as="geometry" />
        </mxCell>
        <mxCell id="Qd1DkLmeTYPWGf3G97mm-49" value="" style="shape=partialRectangle;connectable=0;fillColor=none;top=0;left=0;bottom=0;right=0;editable=1;overflow=hidden;" vertex="1" parent="Qd1DkLmeTYPWGf3G97mm-48">
          <mxGeometry width="30" height="30" as="geometry" />
        </mxCell>
        <mxCell id="Qd1DkLmeTYPWGf3G97mm-50" value="Row 3" style="shape=partialRectangle;connectable=0;fillColor=none;top=0;left=0;bottom=0;right=0;align=left;spacingLeft=6;overflow=hidden;" vertex="1" parent="Qd1DkLmeTYPWGf3G97mm-48">
          <mxGeometry x="30" width="150" height="30" as="geometry" />
        </mxCell>
        <mxCell id="Qd1DkLmeTYPWGf3G97mm-51" value="anggota" style="shape=table;startSize=30;container=1;collapsible=1;childLayout=tableLayout;fixedRows=1;rowLines=0;fontStyle=1;align=center;resizeLast=1;" vertex="1" parent="1cUY1PzR4CZPrAyjgDi5-1">
          <mxGeometry x="50" y="270" width="180" height="160" as="geometry" />
        </mxCell>
        <mxCell id="Qd1DkLmeTYPWGf3G97mm-52" value="" style="shape=partialRectangle;collapsible=0;dropTarget=0;pointerEvents=0;fillColor=none;top=0;left=0;bottom=1;right=0;points=[[0,0.5],[1,0.5]];portConstraint=eastwest;" vertex="1" parent="Qd1DkLmeTYPWGf3G97mm-51">
          <mxGeometry y="30" width="180" height="30" as="geometry" />
        </mxCell>
        <mxCell id="Qd1DkLmeTYPWGf3G97mm-53" value="PK" style="shape=partialRectangle;connectable=0;fillColor=none;top=0;left=0;bottom=0;right=0;fontStyle=1;overflow=hidden;" vertex="1" parent="Qd1DkLmeTYPWGf3G97mm-52">
          <mxGeometry width="30" height="30" as="geometry" />
        </mxCell>
        <mxCell id="Qd1DkLmeTYPWGf3G97mm-54" value="UniqueID" style="shape=partialRectangle;connectable=0;fillColor=none;top=0;left=0;bottom=0;right=0;align=left;spacingLeft=6;fontStyle=5;overflow=hidden;" vertex="1" parent="Qd1DkLmeTYPWGf3G97mm-52">
          <mxGeometry x="30" width="150" height="30" as="geometry" />
        </mxCell>
        <mxCell id="Qd1DkLmeTYPWGf3G97mm-55" value="" style="shape=partialRectangle;collapsible=0;dropTarget=0;pointerEvents=0;fillColor=none;top=0;left=0;bottom=0;right=0;points=[[0,0.5],[1,0.5]];portConstraint=eastwest;" vertex="1" parent="Qd1DkLmeTYPWGf3G97mm-51">
          <mxGeometry y="60" width="180" height="30" as="geometry" />
        </mxCell>
        <mxCell id="Qd1DkLmeTYPWGf3G97mm-56" value="" style="shape=partialRectangle;connectable=0;fillColor=none;top=0;left=0;bottom=0;right=0;editable=1;overflow=hidden;" vertex="1" parent="Qd1DkLmeTYPWGf3G97mm-55">
          <mxGeometry width="30" height="30" as="geometry" />
        </mxCell>
        <mxCell id="Qd1DkLmeTYPWGf3G97mm-57" value="Row 1" style="shape=partialRectangle;connectable=0;fillColor=none;top=0;left=0;bottom=0;right=0;align=left;spacingLeft=6;overflow=hidden;" vertex="1" parent="Qd1DkLmeTYPWGf3G97mm-55">
          <mxGeometry x="30" width="150" height="30" as="geometry" />
        </mxCell>
        <mxCell id="Qd1DkLmeTYPWGf3G97mm-58" value="" style="shape=partialRectangle;collapsible=0;dropTarget=0;pointerEvents=0;fillColor=none;top=0;left=0;bottom=0;right=0;points=[[0,0.5],[1,0.5]];portConstraint=eastwest;" vertex="1" parent="Qd1DkLmeTYPWGf3G97mm-51">
          <mxGeometry y="90" width="180" height="30" as="geometry" />
        </mxCell>
        <mxCell id="Qd1DkLmeTYPWGf3G97mm-59" value="" style="shape=partialRectangle;connectable=0;fillColor=none;top=0;left=0;bottom=0;right=0;editable=1;overflow=hidden;" vertex="1" parent="Qd1DkLmeTYPWGf3G97mm-58">
          <mxGeometry width="30" height="30" as="geometry" />
        </mxCell>
        <mxCell id="Qd1DkLmeTYPWGf3G97mm-60" value="Row 2" style="shape=partialRectangle;connectable=0;fillColor=none;top=0;left=0;bottom=0;right=0;align=left;spacingLeft=6;overflow=hidden;" vertex="1" parent="Qd1DkLmeTYPWGf3G97mm-58">
          <mxGeometry x="30" width="150" height="30" as="geometry" />
        </mxCell>
        <mxCell id="Qd1DkLmeTYPWGf3G97mm-61" value="" style="shape=partialRectangle;collapsible=0;dropTarget=0;pointerEvents=0;fillColor=none;top=0;left=0;bottom=0;right=0;points=[[0,0.5],[1,0.5]];portConstraint=eastwest;" vertex="1" parent="Qd1DkLmeTYPWGf3G97mm-51">
          <mxGeometry y="120" width="180" height="30" as="geometry" />
        </mxCell>
        <mxCell id="Qd1DkLmeTYPWGf3G97mm-62" value="" style="shape=partialRectangle;connectable=0;fillColor=none;top=0;left=0;bottom=0;right=0;editable=1;overflow=hidden;" vertex="1" parent="Qd1DkLmeTYPWGf3G97mm-61">
          <mxGeometry width="30" height="30" as="geometry" />
        </mxCell>
        <mxCell id="Qd1DkLmeTYPWGf3G97mm-63" value="Row 3" style="shape=partialRectangle;connectable=0;fillColor=none;top=0;left=0;bottom=0;right=0;align=left;spacingLeft=6;overflow=hidden;" vertex="1" parent="Qd1DkLmeTYPWGf3G97mm-61">
          <mxGeometry x="30" width="150" height="30" as="geometry" />
        </mxCell>
        <mxCell id="Qd1DkLmeTYPWGf3G97mm-64" value="peminjaman" style="shape=table;startSize=30;container=1;collapsible=1;childLayout=tableLayout;fixedRows=1;rowLines=0;fontStyle=1;align=center;resizeLast=1;" vertex="1" parent="1cUY1PzR4CZPrAyjgDi5-1">
          <mxGeometry x="260" y="270" width="180" height="160" as="geometry" />
        </mxCell>
        <mxCell id="Qd1DkLmeTYPWGf3G97mm-65" value="" style="shape=partialRectangle;collapsible=0;dropTarget=0;pointerEvents=0;fillColor=none;top=0;left=0;bottom=1;right=0;points=[[0,0.5],[1,0.5]];portConstraint=eastwest;" vertex="1" parent="Qd1DkLmeTYPWGf3G97mm-64">
          <mxGeometry y="30" width="180" height="30" as="geometry" />
        </mxCell>
        <mxCell id="Qd1DkLmeTYPWGf3G97mm-66" value="PK" style="shape=partialRectangle;connectable=0;fillColor=none;top=0;left=0;bottom=0;right=0;fontStyle=1;overflow=hidden;" vertex="1" parent="Qd1DkLmeTYPWGf3G97mm-65">
          <mxGeometry width="30" height="30" as="geometry" />
        </mxCell>
        <mxCell id="Qd1DkLmeTYPWGf3G97mm-67" value="UniqueID" style="shape=partialRectangle;connectable=0;fillColor=none;top=0;left=0;bottom=0;right=0;align=left;spacingLeft=6;fontStyle=5;overflow=hidden;" vertex="1" parent="Qd1DkLmeTYPWGf3G97mm-65">
          <mxGeometry x="30" width="150" height="30" as="geometry" />
        </mxCell>
        <mxCell id="Qd1DkLmeTYPWGf3G97mm-68" value="" style="shape=partialRectangle;collapsible=0;dropTarget=0;pointerEvents=0;fillColor=none;top=0;left=0;bottom=0;right=0;points=[[0,0.5],[1,0.5]];portConstraint=eastwest;" vertex="1" parent="Qd1DkLmeTYPWGf3G97mm-64">
          <mxGeometry y="60" width="180" height="30" as="geometry" />
        </mxCell>
        <mxCell id="Qd1DkLmeTYPWGf3G97mm-69" value="" style="shape=partialRectangle;connectable=0;fillColor=none;top=0;left=0;bottom=0;right=0;editable=1;overflow=hidden;" vertex="1" parent="Qd1DkLmeTYPWGf3G97mm-68">
          <mxGeometry width="30" height="30" as="geometry" />
        </mxCell>
        <mxCell id="Qd1DkLmeTYPWGf3G97mm-70" value="Row 1" style="shape=partialRectangle;connectable=0;fillColor=none;top=0;left=0;bottom=0;right=0;align=left;spacingLeft=6;overflow=hidden;" vertex="1" parent="Qd1DkLmeTYPWGf3G97mm-68">
          <mxGeometry x="30" width="150" height="30" as="geometry" />
        </mxCell>
        <mxCell id="Qd1DkLmeTYPWGf3G97mm-71" value="" style="shape=partialRectangle;collapsible=0;dropTarget=0;pointerEvents=0;fillColor=none;top=0;left=0;bottom=0;right=0;points=[[0,0.5],[1,0.5]];portConstraint=eastwest;" vertex="1" parent="Qd1DkLmeTYPWGf3G97mm-64">
          <mxGeometry y="90" width="180" height="30" as="geometry" />
        </mxCell>
        <mxCell id="Qd1DkLmeTYPWGf3G97mm-72" value="" style="shape=partialRectangle;connectable=0;fillColor=none;top=0;left=0;bottom=0;right=0;editable=1;overflow=hidden;" vertex="1" parent="Qd1DkLmeTYPWGf3G97mm-71">
          <mxGeometry width="30" height="30" as="geometry" />
        </mxCell>
        <mxCell id="Qd1DkLmeTYPWGf3G97mm-73" value="Row 2" style="shape=partialRectangle;connectable=0;fillColor=none;top=0;left=0;bottom=0;right=0;align=left;spacingLeft=6;overflow=hidden;" vertex="1" parent="Qd1DkLmeTYPWGf3G97mm-71">
          <mxGeometry x="30" width="150" height="30" as="geometry" />
        </mxCell>
        <mxCell id="Qd1DkLmeTYPWGf3G97mm-74" value="" style="shape=partialRectangle;collapsible=0;dropTarget=0;pointerEvents=0;fillColor=none;top=0;left=0;bottom=0;right=0;points=[[0,0.5],[1,0.5]];portConstraint=eastwest;" vertex="1" parent="Qd1DkLmeTYPWGf3G97mm-64">
          <mxGeometry y="120" width="180" height="30" as="geometry" />
        </mxCell>
        <mxCell id="Qd1DkLmeTYPWGf3G97mm-75" value="" style="shape=partialRectangle;connectable=0;fillColor=none;top=0;left=0;bottom=0;right=0;editable=1;overflow=hidden;" vertex="1" parent="Qd1DkLmeTYPWGf3G97mm-74">
          <mxGeometry width="30" height="30" as="geometry" />
        </mxCell>
        <mxCell id="Qd1DkLmeTYPWGf3G97mm-76" value="Row 3" style="shape=partialRectangle;connectable=0;fillColor=none;top=0;left=0;bottom=0;right=0;align=left;spacingLeft=6;overflow=hidden;" vertex="1" parent="Qd1DkLmeTYPWGf3G97mm-74">
          <mxGeometry x="30" width="150" height="30" as="geometry" />
        </mxCell>
        <mxCell id="Qd1DkLmeTYPWGf3G97mm-77" value="pustakawan" style="shape=table;startSize=30;container=1;collapsible=1;childLayout=tableLayout;fixedRows=1;rowLines=0;fontStyle=1;align=center;resizeLast=1;" vertex="1" parent="1cUY1PzR4CZPrAyjgDi5-1">
          <mxGeometry x="480" y="270" width="180" height="160" as="geometry" />
        </mxCell>
        <mxCell id="Qd1DkLmeTYPWGf3G97mm-78" value="" style="shape=partialRectangle;collapsible=0;dropTarget=0;pointerEvents=0;fillColor=none;top=0;left=0;bottom=1;right=0;points=[[0,0.5],[1,0.5]];portConstraint=eastwest;" vertex="1" parent="Qd1DkLmeTYPWGf3G97mm-77">
          <mxGeometry y="30" width="180" height="30" as="geometry" />
        </mxCell>
        <mxCell id="Qd1DkLmeTYPWGf3G97mm-79" value="PK" style="shape=partialRectangle;connectable=0;fillColor=none;top=0;left=0;bottom=0;right=0;fontStyle=1;overflow=hidden;" vertex="1" parent="Qd1DkLmeTYPWGf3G97mm-78">
          <mxGeometry width="30" height="30" as="geometry" />
        </mxCell>
        <mxCell id="Qd1DkLmeTYPWGf3G97mm-80" value="UniqueID" style="shape=partialRectangle;connectable=0;fillColor=none;top=0;left=0;bottom=0;right=0;align=left;spacingLeft=6;fontStyle=5;overflow=hidden;" vertex="1" parent="Qd1DkLmeTYPWGf3G97mm-78">
          <mxGeometry x="30" width="150" height="30" as="geometry" />
        </mxCell>
        <mxCell id="Qd1DkLmeTYPWGf3G97mm-81" value="" style="shape=partialRectangle;collapsible=0;dropTarget=0;pointerEvents=0;fillColor=none;top=0;left=0;bottom=0;right=0;points=[[0,0.5],[1,0.5]];portConstraint=eastwest;" vertex="1" parent="Qd1DkLmeTYPWGf3G97mm-77">
          <mxGeometry y="60" width="180" height="30" as="geometry" />
        </mxCell>
        <mxCell id="Qd1DkLmeTYPWGf3G97mm-82" value="" style="shape=partialRectangle;connectable=0;fillColor=none;top=0;left=0;bottom=0;right=0;editable=1;overflow=hidden;" vertex="1" parent="Qd1DkLmeTYPWGf3G97mm-81">
          <mxGeometry width="30" height="30" as="geometry" />
        </mxCell>
        <mxCell id="Qd1DkLmeTYPWGf3G97mm-83" value="Row 1" style="shape=partialRectangle;connectable=0;fillColor=none;top=0;left=0;bottom=0;right=0;align=left;spacingLeft=6;overflow=hidden;" vertex="1" parent="Qd1DkLmeTYPWGf3G97mm-81">
          <mxGeometry x="30" width="150" height="30" as="geometry" />
        </mxCell>
        <mxCell id="Qd1DkLmeTYPWGf3G97mm-84" value="" style="shape=partialRectangle;collapsible=0;dropTarget=0;pointerEvents=0;fillColor=none;top=0;left=0;bottom=0;right=0;points=[[0,0.5],[1,0.5]];portConstraint=eastwest;" vertex="1" parent="Qd1DkLmeTYPWGf3G97mm-77">
          <mxGeometry y="90" width="180" height="30" as="geometry" />
        </mxCell>
        <mxCell id="Qd1DkLmeTYPWGf3G97mm-85" value="" style="shape=partialRectangle;connectable=0;fillColor=none;top=0;left=0;bottom=0;right=0;editable=1;overflow=hidden;" vertex="1" parent="Qd1DkLmeTYPWGf3G97mm-84">
          <mxGeometry width="30" height="30" as="geometry" />
        </mxCell>
        <mxCell id="Qd1DkLmeTYPWGf3G97mm-86" value="Row 2" style="shape=partialRectangle;connectable=0;fillColor=none;top=0;left=0;bottom=0;right=0;align=left;spacingLeft=6;overflow=hidden;" vertex="1" parent="Qd1DkLmeTYPWGf3G97mm-84">
          <mxGeometry x="30" width="150" height="30" as="geometry" />
        </mxCell>
        <mxCell id="Qd1DkLmeTYPWGf3G97mm-87" value="" style="shape=partialRectangle;collapsible=0;dropTarget=0;pointerEvents=0;fillColor=none;top=0;left=0;bottom=0;right=0;points=[[0,0.5],[1,0.5]];portConstraint=eastwest;" vertex="1" parent="Qd1DkLmeTYPWGf3G97mm-77">
          <mxGeometry y="120" width="180" height="30" as="geometry" />
        </mxCell>
        <mxCell id="Qd1DkLmeTYPWGf3G97mm-88" value="" style="shape=partialRectangle;connectable=0;fillColor=none;top=0;left=0;bottom=0;right=0;editable=1;overflow=hidden;" vertex="1" parent="Qd1DkLmeTYPWGf3G97mm-87">
          <mxGeometry width="30" height="30" as="geometry" />
        </mxCell>
        <mxCell id="Qd1DkLmeTYPWGf3G97mm-89" value="Row 3" style="shape=partialRectangle;connectable=0;fillColor=none;top=0;left=0;bottom=0;right=0;align=left;spacingLeft=6;overflow=hidden;" vertex="1" parent="Qd1DkLmeTYPWGf3G97mm-87">
          <mxGeometry x="30" width="150" height="30" as="geometry" />
        </mxCell>
      </root>
    </mxGraphModel>
  </diagram>
</mxfile>
